<svg width="23" height="26" viewBox="0 0 23 26" fill="none" xmlns="http://www.w3.org/2000/svg">
<path d="M4.36467 12.6598L21.7272 23.8672C21.8505 23.9466 21.9938 23.9922 22.1418 23.9991C22.2898 24.0059 22.4369 23.9738 22.5675 23.9061C22.6981 23.8384 22.8074 23.7377 22.8835 23.6146C22.9597 23.4916 22.9999 23.3508 23 23.2074V0.792639C22.9999 0.649189 22.9597 0.508446 22.8835 0.385398C22.8074 0.262351 22.6981 0.161607 22.5675 0.0938989C22.4369 0.0261903 22.2898 -0.00594844 22.1418 0.000906029C21.9938 0.0077605 21.8505 0.0533518 21.7272 0.132823L4.36467 11.3402C4.25249 11.4126 4.16051 11.5107 4.0969 11.6258C4.03329 11.7409 4 11.8695 4 12C4 12.1305 4.03329 12.2591 4.0969 12.3742C4.16051 12.4893 4.25249 12.5874 4.36467 12.6598Z" fill="#283437"/>
<rect width="4" height="26" rx="1" transform="matrix(-1 0 0 1 4 0)" fill="#283437"/>
</svg>
