<svg width="22" height="22" viewBox="0 0 22 22" fill="none" xmlns="http://www.w3.org/2000/svg">
<path d="M22 11C22 4.9247 17.0753 0 11 0C4.9247 0 -1.90735e-06 4.9247 -1.90735e-06 11C-1.90735e-06 17.0753 4.9247 22 11 22C12.8314 22.0026 14.6342 21.5462 16.2437 20.6723L20.7729 21.9604C21.4984 22.1666 22.1683 21.4962 21.962 20.7713L20.6739 16.2404C21.5468 14.6318 22.0027 12.8301 22 11ZM15.4 8.9375C15.4 9.317 15.092 9.625 14.7125 9.625H7.2875C7.19721 9.625 7.10781 9.60721 7.0244 9.57266C6.94099 9.53811 6.8652 9.48747 6.80136 9.42363C6.73752 9.35979 6.68688 9.284 6.65233 9.20059C6.61778 9.11718 6.6 9.02778 6.6 8.9375C6.6 8.84721 6.61778 8.75781 6.65233 8.6744C6.68688 8.59099 6.73752 8.5152 6.80136 8.45136C6.8652 8.38752 6.94099 8.33688 7.0244 8.30233C7.10781 8.26778 7.19721 8.25 7.2875 8.25H14.7125C15.092 8.25 15.4 8.558 15.4 8.9375ZM14.7125 12.375C14.8948 12.375 15.0697 12.4474 15.1986 12.5764C15.3276 12.7053 15.4 12.8802 15.4 13.0625C15.4 13.2448 15.3276 13.4197 15.1986 13.5486C15.0697 13.6776 14.8948 13.75 14.7125 13.75H9.4875C9.30516 13.75 9.13029 13.6776 9.00136 13.5486C8.87243 13.4197 8.8 13.2448 8.8 13.0625C8.8 12.8802 8.87243 12.7053 9.00136 12.5764C9.13029 12.4474 9.30516 12.375 9.4875 12.375H14.7125Z" fill="url(#paint0_linear_397_738)"/>
<defs>
<linearGradient id="paint0_linear_397_738" x1="4" y1="2.5" x2="21.5" y2="21.5" gradientUnits="userSpaceOnUse">
<stop stop-color="#7FB7BE"/>
<stop offset="0.510417" stop-color="#51858C"/>
<stop offset="1" stop-color="#256772"/>
</linearGradient>
</defs>
</svg>
