<svg width="10" height="8" viewBox="0 0 10 8" fill="none" xmlns="http://www.w3.org/2000/svg">
<path fill-rule="evenodd" clip-rule="evenodd" d="M9.81687 0.203685C9.93413 0.334144 10 0.511061 10 0.695529C10 0.879998 9.93413 1.05691 9.81687 1.18737L3.87472 7.79632C3.75743 7.92673 3.59836 8 3.4325 8C3.26664 8 3.10758 7.92673 2.99028 7.79632L0.175582 4.66576C0.0616445 4.53456 -0.00140148 4.35883 2.3645e-05 4.17642C0.00144877 3.99402 0.0672309 3.81953 0.183202 3.69055C0.299172 3.56157 0.456053 3.4884 0.620054 3.48682C0.784055 3.48523 0.942055 3.55535 1.06002 3.68208L3.4325 6.32078L8.93242 0.203685C9.04972 0.0732657 9.20879 0 9.37465 0C9.5405 0 9.69957 0.0732657 9.81687 0.203685Z" fill="#586164"/>
</svg>
