<svg width="21" height="20" viewBox="0 0 21 20" fill="none" xmlns="http://www.w3.org/2000/svg">
<path d="M20.3055 8.0415H19.5V8H10.5V12H16.1515C15.327 14.3285 13.1115 16 10.5 16C7.1865 16 4.5 13.3135 4.5 10C4.5 6.6865 7.1865 4 10.5 4C12.0295 4 13.421 4.577 14.4805 5.5195L17.309 2.691C15.523 1.0265 13.134 0 10.5 0C4.9775 0 0.5 4.4775 0.5 10C0.5 15.5225 4.9775 20 10.5 20C16.0225 20 20.5 15.5225 20.5 10C20.5 9.3295 20.431 8.675 20.3055 8.0415Z" fill="#FFC107"/>
<path d="M1.65332 5.3455L4.93882 7.755C5.82782 5.554 7.98082 4 10.5003 4C12.0298 4 13.4213 4.577 14.4808 5.5195L17.3093 2.691C15.5233 1.0265 13.1343 0 10.5003 0C6.65932 0 3.32832 2.1685 1.65332 5.3455Z" fill="#FF3D00"/>
<path d="M10.5002 19.9999C13.0832 19.9999 15.4302 19.0114 17.2047 17.4039L14.1097 14.7849C13.0719 15.574 11.8039 16.0009 10.5002 15.9999C7.89916 15.9999 5.69066 14.3414 4.85866 12.0269L1.59766 14.5394C3.25266 17.7779 6.61366 19.9999 10.5002 19.9999Z" fill="#4CAF50"/>
<path d="M20.3055 8.0415H19.5V8H10.5V12H16.1515C15.7571 13.1082 15.0467 14.0766 14.108 14.7855L14.1095 14.7845L17.2045 17.4035C16.9855 17.6025 20.5 15 20.5 10C20.5 9.3295 20.431 8.675 20.3055 8.0415Z" fill="#1976D2"/>
</svg>
