<svg width="100%" height="100%" viewBox="0 0 108 22" fill="none" xmlns="http://www.w3.org/2000/svg">
<path d="M104.638 11.096C104.638 10.5546 104.348 10.284 103.77 10.284C103.004 10.284 102.332 10.676 101.754 11.46C101.175 12.244 100.885 13.1866 100.885 14.288C100.885 14.5493 100.923 14.68 100.997 14.68C101.669 14.6613 102.444 14.2786 103.322 13.532C104.199 12.7666 104.638 11.9546 104.638 11.096ZM107.074 20C106.439 20.4293 105.198 20.644 103.35 20.644C101.502 20.644 100.083 20.0933 99.0935 18.992C98.1042 17.8906 97.6095 16.4253 97.6095 14.596C97.6095 12.748 98.1975 11.152 99.3735 9.80798C100.568 8.44531 102.239 7.76398 104.385 7.76398C105.263 7.76398 106.066 7.99731 106.794 8.46398C107.54 8.93064 107.913 9.75198 107.913 10.928C107.913 12.0853 107.4 13.2333 106.374 14.372C105.366 15.5106 103.984 16.3786 102.229 16.976C102.229 17.2 102.454 17.3866 102.902 17.536C103.368 17.6666 103.825 17.732 104.273 17.732C105.692 17.732 106.812 17.48 107.633 16.976C107.652 16.9573 107.68 16.948 107.717 16.948C107.755 16.948 107.773 17.1253 107.773 17.48C107.773 18.5626 107.54 19.4026 107.074 20Z" fill="#101D21"/>
<path d="M89.5342 20.616C89.0115 20.616 88.5822 20.56 88.2462 20.448C88.2462 20.056 87.6489 18.0866 86.4542 14.54C85.2782 10.9746 84.6902 8.81864 84.6902 8.07197C84.6902 8.03464 84.7835 7.95997 84.9702 7.84797C85.1755 7.7173 85.5209 7.58664 86.0062 7.45597C86.4915 7.3253 87.0422 7.25997 87.6582 7.25997C88.7969 11.8893 89.6555 14.848 90.2342 16.136C90.2529 16.2293 90.2902 16.2293 90.3462 16.136C90.6822 15.5386 91.1955 13.9613 91.8862 11.404C92.5769 8.82797 92.9595 7.14797 93.0342 6.36397C93.0529 6.25197 93.2582 6.15864 93.6502 6.08397C94.0422 5.99064 94.5555 5.94397 95.1902 5.94397C95.8249 5.94397 96.2542 6.0373 96.4782 6.22397C96.4782 6.7653 95.8155 9.18264 94.4902 13.476C93.1649 17.7506 92.4275 19.9626 92.2782 20.112C92.0169 20.3733 91.2982 20.532 90.1222 20.588L89.5342 20.616Z" fill="#101D21"/>
<path d="M83.5014 13.756C83.5014 16.0893 83.5294 17.452 83.5854 17.844C83.7348 18.8707 84.0521 19.608 84.5374 20.056C84.5374 20.2613 84.1641 20.5693 83.4174 20.98C82.6894 21.3907 82.0268 21.596 81.4294 21.596C81.2614 21.596 81.0841 21.344 80.8974 20.84C80.7108 20.3547 80.5988 19.9907 80.5614 19.748C80.5428 19.5053 80.5241 19.384 80.5054 19.384L80.4214 19.44C79.4321 20.224 78.2748 20.616 76.9494 20.616C75.6241 20.616 74.5974 20.2987 73.8694 19.664C73.1601 19.0107 72.8054 18.1613 72.8054 17.116C72.8054 16.0707 73.0294 15.1933 73.4774 14.484C73.9441 13.756 74.4854 13.2053 75.1014 12.832C75.7174 12.4587 76.3988 12.16 77.1454 11.936C78.2841 11.5627 79.1801 11.376 79.8334 11.376L79.8894 11.348C79.8894 10.4333 78.7321 9.97599 76.4174 9.97599C75.5028 9.97599 74.8214 10.0133 74.3734 10.088H74.3454C74.3454 9.71466 74.4574 9.24799 74.6814 8.68799C74.9241 8.12799 75.1201 7.76399 75.2694 7.59599C75.4374 7.42799 76.1094 7.34399 77.2854 7.34399C79.4134 7.34399 80.9814 7.75466 81.9894 8.57599C82.9974 9.37866 83.5014 10.6293 83.5014 12.328V13.756ZM80.3934 15.548V14.484C80.3934 14.0733 80.3841 13.868 80.3654 13.868C79.1148 13.868 78.0321 14.1947 77.1174 14.848C76.5388 15.2587 76.2494 15.772 76.2494 16.388C76.2494 16.78 76.3894 17.1067 76.6694 17.368C76.9494 17.6293 77.3694 17.76 77.9294 17.76C78.5081 17.76 79.0588 17.592 79.5814 17.256C80.1228 16.92 80.3934 16.3507 80.3934 15.548Z" fill="#101D21"/>
<path d="M71.8205 0.792007C71.8205 2.64001 71.4658 5.16934 70.7565 8.38001C70.0471 11.572 69.3191 14.3533 68.5725 16.724C67.8258 19.0947 67.3405 20.3827 67.1165 20.588C66.8925 20.812 66.3698 21.008 65.5485 21.176C64.7458 21.344 64.1298 21.428 63.7005 21.428C63.2711 21.428 63.0565 21.4 63.0565 21.344C63.0191 21.1947 62.8418 20.2427 62.5245 18.488C61.5911 13.5787 61.0591 10.9747 60.9285 10.676C60.7978 10.3587 60.7138 10.2 60.6765 10.2L60.5365 10.368C60.0698 11.5253 59.5378 13.336 58.9405 15.8C58.3618 18.2453 58.0725 19.6453 58.0725 20C58.0725 20.0747 57.8951 20.1773 57.5405 20.308C56.5698 20.6627 55.6178 20.84 54.6845 20.84C54.4791 20.84 54.3485 20.812 54.2925 20.756C53.7885 20.252 53.0138 17.508 51.9685 12.524C50.9418 7.52134 50.4285 4.00267 50.4285 1.96801C50.4285 1.93067 50.5218 1.85601 50.7085 1.74401C51.3431 1.42667 52.0338 1.27734 52.7805 1.29601C53.5458 1.29601 53.9285 1.31467 53.9285 1.35201C54.0591 3.77867 54.3298 6.33601 54.7405 9.02401C55.1698 11.6933 55.5805 13.5227 55.9725 14.512C56.0098 14.6427 56.0471 14.708 56.0845 14.708C56.1405 14.708 56.1965 14.6427 56.2525 14.512C57.7831 8.59467 58.7165 5.45867 59.0525 5.10401C59.7245 4.84267 60.6671 4.71201 61.8805 4.71201C62.5525 4.74934 62.9165 4.79601 62.9725 4.85201C63.0285 4.90801 63.2151 5.69201 63.5325 7.20401C63.8498 8.69734 64.1951 10.3587 64.5685 12.188C64.9418 13.9987 65.1658 15.0907 65.2405 15.464C65.3338 15.8187 65.4551 15.8 65.6045 15.408C65.9218 14.5307 66.3231 12.9347 66.8085 10.62C67.2938 8.30534 67.5365 6.12134 67.5365 4.06801C67.5365 3.86267 67.3591 3.66667 67.0045 3.48001C66.6685 3.27467 66.3231 3.15334 65.9685 3.11601C65.9498 3.06001 65.9405 2.94801 65.9405 2.78001C65.9405 2.59334 65.9778 2.33201 66.0525 1.99601C66.1458 1.64134 66.2205 1.43601 66.2765 1.38001C67.9751 0.932007 69.6738 0.708008 71.3725 0.708008C71.6711 0.745341 71.8205 0.773341 71.8205 0.792007Z" fill="#101D21"/>
<path d="M48.6928 13.756C48.6928 16.0893 48.7208 17.452 48.7768 17.844C48.9262 18.8707 49.2435 19.608 49.7288 20.056C49.7288 20.2613 49.3555 20.5693 48.6088 20.98C47.8808 21.3907 47.2182 21.596 46.6208 21.596C46.4528 21.596 46.2755 21.344 46.0888 20.84C45.9022 20.3547 45.7902 19.9907 45.7528 19.748C45.7342 19.5053 45.7155 19.384 45.6968 19.384L45.6128 19.44C44.6235 20.224 43.4662 20.616 42.1408 20.616C40.8155 20.616 39.7888 20.2987 39.0608 19.664C38.3515 19.0107 37.9968 18.1613 37.9968 17.116C37.9968 16.0707 38.2208 15.1933 38.6688 14.484C39.1355 13.756 39.6768 13.2053 40.2928 12.832C40.9088 12.4587 41.5902 12.16 42.3368 11.936C43.4755 11.5627 44.3715 11.376 45.0248 11.376L45.0808 11.348C45.0808 10.4333 43.9235 9.97599 41.6088 9.97599C40.6942 9.97599 40.0128 10.0133 39.5648 10.088H39.5368C39.5368 9.71466 39.6488 9.24799 39.8728 8.68799C40.1155 8.12799 40.3115 7.76399 40.4608 7.59599C40.6288 7.42799 41.3008 7.34399 42.4768 7.34399C44.6048 7.34399 46.1728 7.75466 47.1808 8.57599C48.1888 9.37866 48.6928 10.6293 48.6928 12.328V13.756ZM45.5848 15.548V14.484C45.5848 14.0733 45.5755 13.868 45.5568 13.868C44.3062 13.868 43.2235 14.1947 42.3088 14.848C41.7302 15.2587 41.4408 15.772 41.4408 16.388C41.4408 16.78 41.5808 17.1067 41.8608 17.368C42.1408 17.6293 42.5608 17.76 43.1208 17.76C43.6995 17.76 44.2502 17.592 44.7728 17.256C45.3142 16.92 45.5848 16.3507 45.5848 15.548Z" fill="#101D21"/>
<path d="M30.4677 16.22L30.4117 9.86398C30.4117 8.76264 30.4491 8.17464 30.5237 8.09998C30.7291 7.89464 31.0837 7.71731 31.5877 7.56798C32.0917 7.39998 32.5584 7.31598 32.9877 7.31598C33.4357 7.31598 33.6597 7.36265 33.6597 7.45598C33.6037 7.95998 33.5757 8.53864 33.5757 9.19198C33.5757 9.82664 33.5944 10.144 33.6317 10.144C33.6691 10.144 33.7064 10.1253 33.7437 10.088C33.7811 10.032 33.8371 9.95731 33.9117 9.86398C34.0051 9.75198 34.1824 9.56531 34.4437 9.30398C34.7237 9.04264 35.0224 8.81865 35.3397 8.63198C36.1424 8.10931 37.0011 7.84798 37.9157 7.84798C38.0651 8.09064 38.1397 8.46398 38.1397 8.96798C38.1397 10.032 38.0091 10.788 37.7477 11.236L37.6357 11.46L37.2717 11.404C35.9277 11.404 34.8731 11.9546 34.1077 13.056C33.8091 13.504 33.6597 13.84 33.6597 14.064V16.528C33.6597 18.768 33.6317 19.916 33.5757 19.972C33.0531 20.476 32.0264 20.728 30.4957 20.728C30.3464 20.728 30.2717 20.7 30.2717 20.644C30.4024 19.916 30.4677 18.4413 30.4677 16.22Z" fill="#101D21"/>
<path d="M24.5028 18.936L24.4748 18.348L24.4468 18.292C23.9988 18.9827 23.4295 19.5333 22.7388 19.944C22.0668 20.3547 21.4042 20.56 20.7508 20.56C18.7908 20.56 17.6708 19.0387 17.3908 15.996C17.3535 15.5107 17.3348 14.26 17.3348 12.244C17.3348 10.228 17.4188 9.03334 17.5868 8.66001C18.0722 8.26801 18.8562 8.07201 19.9388 8.07201C20.3682 8.07201 20.6295 8.11868 20.7228 8.21201C20.7228 8.23068 20.7135 8.48268 20.6948 8.96801C20.6015 10.3867 20.5548 11.4787 20.5548 12.244C20.5548 13.0093 20.5642 13.5787 20.5828 13.952C20.6015 14.3067 20.6108 14.54 20.6108 14.652C20.6295 14.7453 20.6575 14.9227 20.6948 15.184C20.7508 15.4453 20.8255 15.6693 20.9188 15.856C21.1988 16.3973 21.6282 16.668 22.2068 16.668C22.8042 16.668 23.3268 16.3787 23.7748 15.8C24.2415 15.2027 24.4655 14.7827 24.4468 14.54V13.588C24.4468 10.172 24.5028 8.33334 24.6148 8.07201C24.7082 7.90401 24.9975 7.72668 25.4828 7.54001C25.9868 7.35334 26.4815 7.26001 26.9668 7.26001C27.4522 7.26001 27.7322 7.29734 27.8068 7.37201L27.7508 8.68801C27.6388 11.3573 27.5828 13.42 27.5828 14.876C27.5828 16.332 27.6202 17.256 27.6948 17.648C27.8255 18.5813 28.0775 19.328 28.4508 19.888C28.4508 20.0747 28.0682 20.3733 27.3028 20.784C26.5375 21.1947 25.8842 21.4 25.3428 21.4C25.1935 21.4 25.0255 21.12 24.8388 20.56C24.6522 20 24.5402 19.4587 24.5028 18.936Z" fill="#101D21"/>
<path d="M10.78 13.728C10.5186 13.7093 9.71595 13.7 8.37195 13.7C7.02795 13.7 6.24395 13.7373 6.01995 13.812C5.03062 17.06 4.47062 19.4027 4.33995 20.84C4.33995 20.8587 4.10662 20.868 3.63995 20.868C3.19195 20.868 2.72528 20.84 2.23995 20.784C1.21328 20.6347 0.699951 20.504 0.699951 20.392C0.699951 19.6453 1.36262 17.4707 2.68795 13.868C2.44528 13.6627 2.16528 13.2427 1.84795 12.608C1.53062 11.9547 1.37195 11.4133 1.37195 10.984C1.37195 10.9653 2.14662 10.928 3.69595 10.872C5.22662 6.42933 6.09462 4.08666 6.29995 3.84399C6.37462 3.78799 6.71062 3.70399 7.30795 3.59199C7.90528 3.46133 8.28795 3.39599 8.45595 3.39599L8.39995 3.03199C8.36262 2.77066 8.31595 2.49066 8.25995 2.19199C8.22262 1.87466 8.20395 1.66932 8.20395 1.57599C8.20395 1.51999 8.36262 1.40799 8.67995 1.23999C9.59462 0.791993 10.5373 0.567993 11.508 0.567993C11.6946 1.66933 11.9373 3.07866 12.236 4.79599C12.5533 6.49466 13.16 9.09866 14.056 12.608C14.952 16.1173 15.8106 18.5627 16.632 19.944L16.828 20.28C16.828 20.3733 16.6506 20.532 16.296 20.756C15.9413 20.98 15.4746 21.1947 14.896 21.4C14.3173 21.6053 13.7853 21.708 13.3 21.708C13.132 21.708 12.7213 20.6533 12.068 18.544C11.4333 16.416 11.004 14.8107 10.78 13.728ZM10.108 10.844C9.47329 8.15599 9.12795 6.65333 9.07195 6.33599C9.01595 6.01866 8.96928 5.85999 8.93195 5.85999C8.89462 5.85999 8.84795 5.89733 8.79195 5.97199C8.62395 6.28933 8.30662 7.05466 7.83995 8.26799C7.39195 9.48133 7.10262 10.3213 6.97195 10.788C9.04395 10.788 10.0893 10.8067 10.108 10.844Z" fill="#101D21"/>
</svg>
