<svg width="22" height="22" viewBox="0 0 22 22" fill="none" xmlns="http://www.w3.org/2000/svg">
<path fill-rule="evenodd" clip-rule="evenodd" d="M7.90643 0.238401C8.02064 0.352569 8.09834 0.498096 8.12967 0.656507C8.161 0.814919 8.14456 0.979068 8.08242 1.12812C7.58577 2.32006 7.33097 3.59884 7.33284 4.89012C7.33284 7.48316 8.36293 9.97 10.1965 11.8036C12.0301 13.6371 14.5169 14.6672 17.11 14.6672C18.4013 14.6691 19.68 14.4143 20.872 13.9176C21.0209 13.8556 21.1849 13.8392 21.3432 13.8705C21.5015 13.9017 21.6469 13.9793 21.7611 14.0933C21.8752 14.2074 21.9529 14.3527 21.9844 14.511C22.0158 14.6692 21.9996 14.8332 21.9377 14.9822C21.0708 17.0607 19.6083 18.8361 17.7343 20.0849C15.8603 21.3337 13.6586 22.0001 11.4066 22C5.10692 22 0 16.8931 0 10.5934C0 5.84827 2.89729 1.78101 7.0178 0.0624141C7.16671 0.000513799 7.33064 -0.0158053 7.48883 0.0155232C7.64702 0.0468517 7.79236 0.124419 7.90643 0.238401Z" fill="#B1B7B9"/>
</svg>
