<svg width="current" height="current" viewBox="0 0 19 4" fill="currentColor" xmlns="http://www.w3.org/2000/svg">
<path d="M1.8125 3.625C2.81352 3.625 3.625 2.81352 3.625 1.8125C3.625 0.811484 2.81352 0 1.8125 0C0.811484 0 0 0.811484 0 1.8125C0 2.81352 0.811484 3.625 1.8125 3.625Z" fill="currentColor"/>
<path d="M9.0625 3.625C10.0635 3.625 10.875 2.81352 10.875 1.8125C10.875 0.811484 10.0635 0 9.0625 0C8.06148 0 7.25 0.811484 7.25 1.8125C7.25 2.81352 8.06148 3.625 9.0625 3.625Z" fill="currentColor"/>
<path d="M16.3125 3.625C17.3135 3.625 18.125 2.81352 18.125 1.8125C18.125 0.811484 17.3135 0 16.3125 0C15.3115 0 14.5 0.811484 14.5 1.8125C14.5 2.81352 15.3115 3.625 16.3125 3.625Z" fill="currentColor"/>
</svg>
