<svg width="current" height="current" viewBox="0 0 19 21" fill="currentColor" xmlns="http://www.w3.org/2000/svg">
<path d="M19 1.75V19.25C19 19.7141 18.818 20.1592 18.4941 20.4874C18.1702 20.8156 17.7308 21 17.2727 21H12.9545C12.4964 21 12.0571 20.8156 11.7332 20.4874C11.4093 20.1592 11.2273 19.7141 11.2273 19.25V1.75C11.2273 1.28587 11.4093 0.840752 11.7332 0.512563C12.0571 0.184374 12.4964 0 12.9545 0H17.2727C17.7308 0 18.1702 0.184374 18.4941 0.512563C18.818 0.840752 19 1.28587 19 1.75ZM6.04545 0H1.72727C1.26917 0 0.829833 0.184374 0.505906 0.512563C0.18198 0.840752 0 1.28587 0 1.75V19.25C0 19.7141 0.18198 20.1592 0.505906 20.4874C0.829833 20.8156 1.26917 21 1.72727 21H6.04545C6.50356 21 6.94289 20.8156 7.26682 20.4874C7.59075 20.1592 7.77273 19.7141 7.77273 19.25V1.75C7.77273 1.28587 7.59075 0.840752 7.26682 0.512563C6.94289 0.184374 6.50356 0 6.04545 0Z" fill="current"/>
</svg>
