<svg width="20" height="22" viewBox="0 0 20 22" fill="none" xmlns="http://www.w3.org/2000/svg">
<path d="M20 1.26923V16.0769C20 16.5176 19.8524 16.9099 19.5573 17.2536C19.2622 17.5974 18.8889 17.864 18.4375 18.0535C17.9861 18.243 17.5369 18.384 17.0898 18.4766C16.6428 18.5691 16.224 18.6154 15.8333 18.6154C15.4427 18.6154 15.0239 18.5691 14.5768 18.4766C14.1298 18.384 13.6806 18.243 13.2292 18.0535C12.7778 17.864 12.4045 17.5974 12.1094 17.2536C11.8142 16.9099 11.6667 16.5176 11.6667 16.0769C11.6667 15.6362 11.8142 15.244 12.1094 14.9002C12.4045 14.5565 12.7778 14.2899 13.2292 14.1004C13.6806 13.9109 14.1298 13.7698 14.5768 13.6773C15.0239 13.5847 15.4427 13.5385 15.8333 13.5385C16.7448 13.5385 17.5781 13.7103 18.3333 14.0541V6.95433L8.33333 10.0877V19.4615C8.33333 19.9022 8.18576 20.2945 7.89062 20.6382C7.59549 20.982 7.22222 21.2486 6.77083 21.4381C6.31944 21.6276 5.87023 21.7686 5.42318 21.8612C4.97613 21.9537 4.55729 22 4.16667 22C3.77604 22 3.3572 21.9537 2.91016 21.8612C2.46311 21.7686 2.01389 21.6276 1.5625 21.4381C1.11111 21.2486 0.737847 20.982 0.442708 20.6382C0.147569 20.2945 0 19.9022 0 19.4615C0 19.0208 0.147569 18.6286 0.442708 18.2849C0.737847 17.9411 1.11111 17.6745 1.5625 17.485C2.01389 17.2955 2.46311 17.1544 2.91016 17.0619C3.3572 16.9694 3.77604 16.9231 4.16667 16.9231C5.07812 16.9231 5.91146 17.095 6.66667 17.4387V4.65385C6.66667 4.38061 6.74913 4.13161 6.91406 3.90685C7.07899 3.68209 7.29167 3.52564 7.55208 3.4375L18.3854 0.0528846C18.4896 0.0176282 18.6111 0 18.75 0C19.0972 0 19.3924 0.123397 19.6354 0.370192C19.8785 0.616987 20 0.916667 20 1.26923Z" fill="url(#paint0_linear_397_106)"/>
<defs>
<linearGradient id="paint0_linear_397_106" x1="10" y1="0" x2="10" y2="22" gradientUnits="userSpaceOnUse">
<stop stop-color="#7FB7BE"/>
<stop offset="0.494792" stop-color="#51858C"/>
<stop offset="1" stop-color="#256772"/>
</linearGradient>
</defs>
</svg>
