<svg width="23" height="26" viewBox="0 0 23 26" fill="none" xmlns="http://www.w3.org/2000/svg">
<path d="M18.6353 12.6598L1.27283 23.8672C1.14948 23.9466 1.00619 23.9922 0.858201 23.9991C0.710214 24.0059 0.563078 23.9738 0.432464 23.9061C0.30185 23.8384 0.19265 23.7377 0.116493 23.6146C0.0403365 23.4916 7.6534e-05 23.3508 0 23.2074V0.792639C7.6534e-05 0.649189 0.0403365 0.508446 0.116493 0.385398C0.19265 0.262351 0.30185 0.161607 0.432464 0.0938989C0.563078 0.0261903 0.710214 -0.00594844 0.858201 0.000906029C1.00619 0.0077605 1.14948 0.0533518 1.27283 0.132823L18.6353 11.3402C18.7475 11.4126 18.8395 11.5107 18.9031 11.6258C18.9667 11.7409 19 11.8695 19 12C19 12.1305 18.9667 12.2591 18.9031 12.3742C18.8395 12.4893 18.7475 12.5874 18.6353 12.6598Z" fill="#283437"/>
<rect x="19" width="4" height="26" rx="1" fill="#283437"/>
</svg>
