<svg width="20" height="22" viewBox="0 0 20 22" fill="none" xmlns="http://www.w3.org/2000/svg">
<path d="M10.0004 11C8.71543 11 7.473 10.4262 6.50055 9.38499C5.55498 8.36937 4.97752 7.01499 4.87565 5.57249C4.7669 4.03375 5.23625 2.61875 6.19682 1.5875C7.15739 0.556249 8.50044 0 10.0004 0C11.4896 0 12.8364 0.566249 13.7939 1.595C14.7607 2.63375 15.2313 4.04625 15.1226 5.57187C15.0182 7.01624 14.4413 8.36999 13.4976 9.38436C12.5277 10.4262 11.2859 11 10.0004 11ZM18.2393 22H1.76208C1.49716 22.0014 1.23545 21.942 0.99709 21.8264C0.758726 21.7108 0.550063 21.542 0.387157 21.3331C0.214356 21.1066 0.0950254 20.844 0.0380971 20.5648C-0.0188311 20.2857 -0.0118814 19.9973 0.0584264 19.7212C0.584646 17.6081 1.88832 15.8556 3.82821 14.6537C5.54998 13.5875 7.74173 13 10.0004 13C12.3033 13 14.4376 13.5625 16.1694 14.6281C18.1136 15.8237 19.4192 17.5862 19.9429 19.725C20.0124 20.0013 20.0185 20.2896 19.961 20.5686C19.9034 20.8476 19.7836 21.11 19.6104 21.3362C19.4477 21.5442 19.2395 21.7121 19.0018 21.8272C18.7642 21.9422 18.5033 22.0013 18.2393 22Z" fill="#B1B7B9"/>
</svg>
