<svg width="14" height="14" viewBox="0 0 14 14" fill="none" xmlns="http://www.w3.org/2000/svg">
<path fill-rule="evenodd" clip-rule="evenodd" d="M7 14C10.866 14 14 10.866 14 7C14 3.13401 10.866 0 7 0C3.13401 0 0 3.13401 0 7C0 10.866 3.13401 14 7 14ZM3.5 10.2408C3.5 10.8889 4.2 10.8889 4.2 10.8889H9.8C9.8 10.8889 10.5 10.8889 10.5 10.2408C10.5 9.59262 9.8 7.64818 7 7.64818C4.2 7.64818 3.5 9.59262 3.5 10.2408ZM8.48492 6.43051C8.0911 6.79517 7.55695 7.00003 7 7.00003C6.44305 7.00003 5.9089 6.79517 5.51508 6.43051C5.12125 6.06586 4.9 5.57128 4.9 5.05558C4.9 4.53989 5.12125 4.04531 5.51508 3.68066C5.9089 3.316 6.44305 3.11114 7 3.11114C7.55695 3.11114 8.0911 3.316 8.48492 3.68066C8.87875 4.04531 9.1 4.53989 9.1 5.05558C9.1 5.57128 8.87875 6.06586 8.48492 6.43051Z" fill="#283437"/>
</svg>
