<svg width="25" height="29" viewBox="0 0 25 29" fill="none" xmlns="http://www.w3.org/2000/svg">
<path d="M25 14.5C25.0009 14.8787 24.902 15.2512 24.7128 15.5812C24.5237 15.9113 24.2507 16.1877 23.9204 16.3835L3.45454 28.6717C3.1095 28.8791 2.7143 28.9923 2.30977 28.9996C1.90524 29.007 1.50604 28.9082 1.15341 28.7135C0.804133 28.5218 0.513176 28.2423 0.31046 27.9037C0.107744 27.565 0.000583605 27.1795 0 26.7868V2.21323C0.000583605 1.82048 0.107744 1.43496 0.31046 1.09633C0.513176 0.757697 0.804133 0.478173 1.15341 0.286499C1.50604 0.0918024 1.90524 -0.00697016 2.30977 0.000382484C2.7143 0.00773513 3.1095 0.120947 3.45454 0.328325L23.9204 12.6165C24.2507 12.8123 24.5237 13.0887 24.7128 13.4188C24.902 13.7488 25.0009 14.1213 25 14.5Z" fill="url(#paint0_linear_82_23)" fill-opacity="0.85"/>
<defs>
<linearGradient id="paint0_linear_82_23" x1="1" y1="-4.43232e-08" x2="18" y2="28" gradientUnits="userSpaceOnUse">
<stop stop-color="#8DAFB6"/>
<stop offset="1" stop-color="#5C949B"/>
</linearGradient>
</defs>
</svg>
