<svg width="33" height="44" viewBox="0 0 33 44" fill="none" xmlns="http://www.w3.org/2000/svg">
<path d="M32.3666 23.2097L2.2107 43.7565C1.99647 43.9022 1.74759 43.9858 1.49056 43.9983C1.23353 44.0109 0.977977 43.952 0.751122 43.8279C0.524266 43.7037 0.334602 43.519 0.20233 43.2934C0.0700582 43.0679 0.000132927 42.8098 0 42.5468V1.45317C0.000132927 1.19018 0.0700582 0.93215 0.20233 0.706563C0.334602 0.480976 0.524266 0.29628 0.751122 0.172148C0.977977 0.0480155 1.23353 -0.0109055 1.49056 0.00166105C1.74759 0.0142276 1.99647 0.0978116 2.2107 0.243509L32.3666 20.7903C32.5615 20.9231 32.7212 21.103 32.8317 21.314C32.9422 21.525 33 21.7607 33 22C33 22.2393 32.9422 22.475 32.8317 22.686C32.7212 22.897 32.5615 23.0769 32.3666 23.2097Z" fill="#283437"/>
</svg>
